<svg width="600" height="400" viewBox="0 0 600 400" fill="none" xmlns="http://www.w3.org/2000/svg">
  <!-- 背景元素 -->
  <rect width="600" height="400" rx="20" fill="#F5F7FA"/>
  
  <!-- 主要图形 -->
  <path d="M150 200C150 152.386 187.386 115 235 115H365C412.614 115 450 152.386 450 200V300C450 347.614 412.614 385 365 385H235C187.386 385 150 347.614 150 300V200Z" fill="white" stroke="#E4E7EB" stroke-width="2"/>
  
  <!-- 404文字 -->
  <text x="300" y="180" font-family="Arial" font-size="80" font-weight="bold" text-anchor="middle" fill="#409EFF">4</text>
  <circle cx="240" cy="140" r="20" fill="#F56C6C"/>
  <text x="360" y="180" font-family="Arial" font-size="80" font-weight="bold" text-anchor="middle" fill="#409EFF">4</text>
  
  <!-- 小人物插图 -->
  <circle cx="300" cy="250" r="30" fill="#FFC107"/>
  <path d="M300 280V330M270 310H330M300 260L285 245M300 260L315 245" stroke="#333" stroke-width="3" stroke-linecap="round"/>
  
  <!-- 搜索图标 -->
  <path d="M450 250L500 300M470 230C470 253.196 451.196 272 428 272C404.804 272 386 253.196 386 230C386 206.804 404.804 188 428 188C451.196 188 470 206.804 470 230Z" stroke="#909399" stroke-width="3" stroke-linecap="round"/>
  
  <!-- 装饰元素 -->
  <circle cx="100" cy="100" r="8" fill="#67C23A" opacity="0.6"/>
  <circle cx="550" cy="80" r="12" fill="#E6A23C" opacity="0.6"/>
  <circle cx="80" cy="350" r="15" fill="#F56C6C" opacity="0.6"/>
</svg>